<?xml version="1.0" encoding="UTF-8" standalone="no"?>
<!DOCTYPE svg PUBLIC "-//W3C//DTD SVG 1.1//EN"
 "http://www.w3.org/Graphics/SVG/1.1/DTD/svg11.dtd">
<!-- Generated by graphviz version 2.28.0 (20111009.1343)
 -->
<!-- Title: test Pages: 1 -->
<svg width="842pt" height="188pt"
 viewBox="0.00 0.00 842.00 188.00" xmlns="http://www.w3.org/2000/svg" xmlns:xlink="http://www.w3.org/1999/xlink">
<g id="graph1" class="graph" transform="scale(1 1) rotate(0) translate(4 184)">
<title>test</title>
<polygon fill="white" stroke="white" points="-4,5 -4,-184 839,-184 839,5 -4,5"/>
<!-- node1 -->
<g id="node1" class="node"><title>node1</title>
<polygon fill="none" stroke="black" points="809.25,-108 710.75,-108 710.75,-72 809.25,-72 809.25,-108"/>
<text text-anchor="middle" x="760" y="-86.3" font-family="Times,serif" font-size="14.00">AS&#45;AWANTI</text>
</g>
<!-- node2 -->
<g id="node2" class="node"><title>node2</title>
<polygon fill="none" stroke="black" points="409.5,-36 354.5,-36 354.5,-0 409.5,-0 409.5,-36"/>
<text text-anchor="middle" x="382" y="-14.3" font-family="Times,serif" font-size="14.00">as&#45;eltel</text>
</g>
<!-- node1&#45;&gt;node2 -->
<g id="edge2" class="edge"><title>node1&#45;&gt;node2</title>
<path fill="none" stroke="black" d="M710.533,-74.2962C707.317,-73.4799 704.119,-72.706 701,-72 594.226,-47.8328 465.027,-29.7314 409.518,-22.4771"/>
</g>
<!-- AS112 -->
<g id="node3" class="node"><title>AS112</title>
<polygon fill="none" stroke="black" points="746.5,-180 691.5,-180 691.5,-144 746.5,-144 746.5,-180"/>
<text text-anchor="middle" x="719" y="-158.3" font-family="Times,serif" font-size="14.00">AS112</text>
</g>
<!-- AS112&#45;&gt;node1 -->
<g id="edge4" class="edge"><title>AS112&#45;&gt;node1</title>
<path fill="none" stroke="black" d="M729.135,-143.697C735.49,-132.846 743.649,-118.917 749.982,-108.104"/>
</g>
<!-- AS34102 -->
<g id="node4" class="node"><title>AS34102</title>
<polygon fill="none" stroke="black" points="834.25,-180 765.75,-180 765.75,-144 834.25,-144 834.25,-180"/>
<text text-anchor="middle" x="800" y="-158.3" font-family="Times,serif" font-size="14.00">AS34102</text>
</g>
<!-- AS34102&#45;&gt;node1 -->
<g id="edge14" class="edge"><title>AS34102&#45;&gt;node1</title>
<path fill="none" stroke="black" d="M790.112,-143.697C783.912,-132.846 775.952,-118.917 769.774,-108.104"/>
</g>
<!-- AS20597 -->
<g id="node5" class="node"><title>AS20597</title>
<polygon fill="none" stroke="black" points="68.25,-108 -0.25,-108 -0.25,-72 68.25,-72 68.25,-108"/>
<text text-anchor="middle" x="34" y="-86.3" font-family="Times,serif" font-size="14.00">AS20597</text>
</g>
<!-- AS20597&#45;&gt;node2 -->
<g id="edge10" class="edge"><title>AS20597&#45;&gt;node2</title>
<path fill="none" stroke="black" d="M68.3717,-74.9859C71.5993,-73.8929 74.8436,-72.8758 78,-72 177.892,-44.2841 300.458,-28.1867 354.35,-21.9786"/>
</g>
<!-- AS30924 -->
<g id="node6" class="node"><title>AS30924</title>
<polygon fill="none" stroke="black" points="155.25,-108 86.75,-108 86.75,-72 155.25,-72 155.25,-108"/>
<text text-anchor="middle" x="121" y="-86.3" font-family="Times,serif" font-size="14.00">AS30924</text>
</g>
<!-- AS30924&#45;&gt;node2 -->
<g id="edge12" class="edge"><title>AS30924&#45;&gt;node2</title>
<path fill="none" stroke="black" d="M155.438,-75.2104C158.652,-74.0704 161.875,-72.9809 165,-72 231.972,-50.9801 312.718,-33.1893 354.282,-24.5692"/>
</g>
<!-- AS35357 -->
<g id="node7" class="node"><title>AS35357</title>
<polygon fill="none" stroke="black" points="242.25,-108 173.75,-108 173.75,-72 242.25,-72 242.25,-108"/>
<text text-anchor="middle" x="208" y="-86.3" font-family="Times,serif" font-size="14.00">AS35357</text>
</g>
<!-- AS35357&#45;&gt;node2 -->
<g id="edge16" class="edge"><title>AS35357&#45;&gt;node2</title>
<path fill="none" stroke="black" d="M242.377,-75.1703C275.159,-61.9819 323.909,-42.3698 354.28,-30.1516"/>
</g>
<!-- AS44112 -->
<g id="node8" class="node"><title>AS44112</title>
<polygon fill="none" stroke="black" points="329.25,-108 260.75,-108 260.75,-72 329.25,-72 329.25,-108"/>
<text text-anchor="middle" x="295" y="-86.3" font-family="Times,serif" font-size="14.00">AS44112</text>
</g>
<!-- AS44112&#45;&gt;node2 -->
<g id="edge18" class="edge"><title>AS44112&#45;&gt;node2</title>
<path fill="none" stroke="black" d="M316.506,-71.6966C329.991,-60.8463 347.304,-46.9167 360.742,-36.1043"/>
</g>
<!-- AS52007 -->
<g id="node9" class="node"><title>AS52007</title>
<polygon fill="none" stroke="black" points="416.25,-108 347.75,-108 347.75,-72 416.25,-72 416.25,-108"/>
<text text-anchor="middle" x="382" y="-86.3" font-family="Times,serif" font-size="14.00">AS52007</text>
</g>
<!-- AS52007&#45;&gt;node2 -->
<g id="edge20" class="edge"><title>AS52007&#45;&gt;node2</title>
<path fill="none" stroke="black" d="M382,-71.6966C382,-60.8463 382,-46.9167 382,-36.1043"/>
</g>
<!-- AS56764 -->
<g id="node10" class="node"><title>AS56764</title>
<polygon fill="none" stroke="black" points="503.25,-108 434.75,-108 434.75,-72 503.25,-72 503.25,-108"/>
<text text-anchor="middle" x="469" y="-86.3" font-family="Times,serif" font-size="14.00">AS56764</text>
</g>
<!-- AS56764&#45;&gt;node2 -->
<g id="edge22" class="edge"><title>AS56764&#45;&gt;node2</title>
<path fill="none" stroke="black" d="M447.494,-71.6966C434.009,-60.8463 416.696,-46.9167 403.258,-36.1043"/>
</g>
<!-- AS197759 -->
<g id="node11" class="node"><title>AS197759</title>
<polygon fill="none" stroke="black" points="598,-108 522,-108 522,-72 598,-72 598,-108"/>
<text text-anchor="middle" x="560" y="-86.3" font-family="Times,serif" font-size="14.00">AS197759</text>
</g>
<!-- AS197759&#45;&gt;node2 -->
<g id="edge6" class="edge"><title>AS197759&#45;&gt;node2</title>
<path fill="none" stroke="black" d="M521.815,-73.9832C488.104,-60.7263 439.767,-41.7172 409.661,-29.8781"/>
</g>
<!-- AS197888 -->
<g id="node12" class="node"><title>AS197888</title>
<polygon fill="none" stroke="black" points="692,-108 616,-108 616,-72 692,-72 692,-108"/>
<text text-anchor="middle" x="654" y="-86.3" font-family="Times,serif" font-size="14.00">AS197888</text>
</g>
<!-- AS197888&#45;&gt;node2 -->
<g id="edge8" class="edge"><title>AS197888&#45;&gt;node2</title>
<path fill="none" stroke="black" d="M615.903,-74.8028C612.904,-73.8131 609.911,-72.8661 607,-72 536.801,-51.113 452.343,-33.071 409.632,-24.4327"/>
</g>
</g>
</svg>
